<svg width="18" height="18" viewBox="0 0 18 18" fill="none" xmlns="http://www.w3.org/2000/svg">
<path d="M17.1766 4.87759C16.9803 4.13853 16.402 3.55647 15.6677 3.35894C14.3368 3 8.9999 3 8.9999 3C8.9999 3 3.66302 3 2.33205 3.35894C1.59777 3.5565 1.01946 4.13853 0.823178 4.87759C0.466553 6.21719 0.466553 9.01213 0.466553 9.01213C0.466553 9.01213 0.466553 11.8071 0.823178 13.1467C1.01946 13.8857 1.59777 14.4435 2.33205 14.6411C3.66302 15 8.9999 15 8.9999 15C8.9999 15 14.3368 15 15.6677 14.6411C16.402 14.4435 16.9803 13.8857 17.1766 13.1467C17.5332 11.8071 17.5332 9.01213 17.5332 9.01213C17.5332 9.01213 17.5332 6.21719 17.1766 4.87759ZM7.25443 11.5497V6.47453L11.715 9.01219L7.25443 11.5497Z" fill="white"/>
</svg>
